<svg width="14" height="18" viewBox="0 0 14 18" fill="none" xmlns="http://www.w3.org/2000/svg">
<path fill-rule="evenodd" clip-rule="evenodd" d="M6.99922 17.5C6.29506 17.5 5.72422 16.9292 5.72422 16.225L5.72422 4.94054L2.39328 8.60871C1.90522 9.1163 1.09809 9.13212 0.590506 8.64406C0.082923 8.156 0.0670964 7.34887 0.555158 6.84129L6.08016 0.891286C6.32054 0.641287 6.6524 0.5 6.99922 0.5C7.34604 0.5 7.6779 0.641287 7.91828 0.891286L13.4433 6.84129C13.9313 7.34887 13.9155 8.156 13.4079 8.64406C12.9003 9.13212 12.0932 9.1163 11.6052 8.60871L8.27422 4.94054V16.225C8.27422 16.9292 7.70338 17.5 6.99922 17.5Z" fill="white"/>
</svg>
