<svg width="13" height="12" viewBox="0 0 13 12" fill="none" xmlns="http://www.w3.org/2000/svg">
<path d="M2.20437 0.263604C1.85289 -0.087868 1.28304 -0.087868 0.931573 0.263604C0.580101 0.615076 0.580101 1.18492 0.931573 1.5364L5.39518 6L0.931573 10.4636C0.580101 10.8151 0.580101 11.3849 0.931573 11.7364C1.28304 12.0879 1.85289 12.0879 2.20437 11.7364L6.66797 7.27279L11.1316 11.7364C11.483 12.0879 12.0529 12.0879 12.4044 11.7364C12.7558 11.3849 12.7558 10.8151 12.4044 10.4636L7.94076 6L12.4044 1.5364C12.7558 1.18492 12.7558 0.615076 12.4044 0.263604C12.0529 -0.087868 11.483 -0.087868 11.1316 0.263604L6.66797 4.72721L2.20437 0.263604Z" fill="#262626"/>
</svg>
