<svg width="18" height="18" viewBox="0 0 18 18" fill="none" xmlns="http://www.w3.org/2000/svg">
<path d="M0.429688 8.96664C0.429688 10.3646 0.77288 11.6787 1.3923 12.8506L2.8404 11.4025C3.03292 11.21 3.3259 11.21 3.51842 11.4025C3.71094 11.595 3.71931 11.888 3.51842 12.0889L1.89453 13.7128C2.10379 14.0057 2.31306 14.2903 2.5558 14.5498L14.5591 2.55483C14.2913 2.31208 13.9983 2.09445 13.7138 1.89355L12.0731 3.53418C11.8805 3.7267 11.5793 3.71833 11.3867 3.53418C11.1942 3.34165 11.1942 3.04869 11.3867 2.8478L12.8432 1.3997C11.6797 0.771903 10.3571 0.428711 8.95926 0.428711C4.29687 0.428711 0.429688 4.2959 0.429688 8.96664ZM10.7924 4.81487L9.64562 5.96163C9.45312 6.15415 9.15176 6.14579 8.95926 5.96163C8.77512 5.76911 8.76676 5.4594 8.95926 5.27525L10.1144 4.12849C10.3069 3.94434 10.6083 3.93597 10.7924 4.12849C10.9849 4.32101 10.9849 4.62235 10.7924 4.81487ZM8.37333 7.24233L7.2182 8.38907C7.03404 8.57321 6.7327 8.57321 6.54018 8.38907C6.34766 8.19657 6.34766 7.89521 6.54018 7.70271L7.68697 6.55594C7.87947 6.36342 8.18083 6.36342 8.37333 6.55594C8.55747 6.7401 8.56583 7.05818 8.37333 7.24233ZM5.94587 9.66143L4.80748 10.8081C4.60659 11.0007 4.31362 10.9924 4.1211 10.8081C3.92857 10.6156 3.92857 10.3227 4.1211 10.1301L5.25949 8.975C5.45201 8.7825 5.75335 8.79085 5.94587 8.975C6.13002 9.16757 6.14677 9.46885 5.94587 9.66143ZM8.96762 17.5046C13.6384 17.5046 17.5055 13.6291 17.5055 8.96664C17.5055 7.57714 17.1624 6.2546 16.543 5.0911L15.0948 6.53083C14.894 6.73173 14.6094 6.72335 14.4168 6.53083C14.2327 6.33831 14.216 6.04534 14.4168 5.84445L16.0408 4.22893C15.8398 3.93597 15.6305 3.65137 15.3878 3.39188L3.38449 15.3869C3.65235 15.6212 3.93694 15.8389 4.22154 16.0398L5.86217 14.3991C6.06306 14.1899 6.35603 14.2066 6.54855 14.3991C6.74107 14.5916 6.74945 14.8763 6.54855 15.0771L5.0837 16.542C6.25558 17.1531 7.56975 17.5046 8.96762 17.5046ZM13.8142 7.80314L12.6758 8.95828C12.4833 9.15078 12.1819 9.14243 11.9894 8.95828C11.8053 8.75743 11.7969 8.46443 11.9894 8.27193L13.1362 7.12514C13.3287 6.93262 13.6217 6.93262 13.8142 7.12514C14.015 7.30929 14.0067 7.61064 13.8142 7.80314ZM11.3951 10.2306L10.2483 11.369C10.0558 11.5699 9.75447 11.5699 9.56197 11.369C9.37776 11.1849 9.3694 10.8751 9.56197 10.6826L10.717 9.54421C10.9013 9.36007 11.211 9.36007 11.3951 9.54421C11.5876 9.73671 11.5876 10.0297 11.3951 10.2306ZM8.97597 12.6497L7.8209 13.7964C7.62833 13.9806 7.33538 13.989 7.14286 13.7964C6.95034 13.6039 6.95034 13.3026 7.14286 13.1101L8.28962 11.9633C8.48212 11.7708 8.78347 11.7875 8.97597 11.9633C9.16019 12.1642 9.16855 12.4656 8.97597 12.6497Z" fill="#CBEA7B"/>
</svg>
